# xmcd
#
# Track frame offsets: 
#        183
#        15613
#        32475
#        45878
#        61358
#        78333
#        91750
#        105930
#        122613
#        139910
#        153408
#        164953
#        176445
#        188415
#
# Disc length: 2819 seconds
#
# Revision: 0
# Processed by: cddbd v1.5.2PL0 Copyright (c) Steve Scherf et al.
# Submitted via: ExactAudioCopy v0.99pb4
#
DISCID=a00b010e
DTITLE=Denise LaSalle - Here I Am Again
DYEAR=1975
DGENRE=Soul
TTITLE0=Here I Am Again
TTITLE1=Married, But Not To Each Other
TTITLE2=Share Your Man With Me
TTITLE3=I Wanna Do What's On Your Mind
TTITLE4=Trying To Forget
TTITLE5=My Brand On You
TTITLE6=Stay With Me A While
TTITLE7=Any Time Is The Right Time
TTITLE8=Don't Nobody Live Here (By The Name Of Fool)
TTITLE9=Hit And Run
TTITLE10=We've Got Love
TTITLE11=Get Up Off My Mind
TTITLE12=Who's The Fool
TTITLE13=The Best Thing I've Ever Had
EXTD=
EXTT0=
EXTT1=
EXTT2=
EXTT3=
EXTT4=
EXTT5=
EXTT6=
EXTT7=
EXTT8=
EXTT9=
EXTT10=
EXTT11=
EXTT12=
EXTT13=
PLAYORDER=
